<svg width="31" height="28" viewBox="0 0 31 28" fill="none" xmlns="http://www.w3.org/2000/svg">
<path d="M23.0862 10.4909L16.9902 1.40831C16.7131 1.13308 16.2975 0.857849 15.8818 0.857849C15.4662 0.857849 15.0506 0.995464 14.7735 1.40831L8.67742 10.4909H2.02719C1.19591 10.4909 0.641724 11.0413 0.641724 11.867C0.641724 12.0046 0.641724 12.1423 0.641724 12.2799L4.10538 25.078C4.38248 26.179 5.49085 27.1423 6.73777 27.1423H24.7488C25.9957 27.1423 27.1041 26.3166 27.3812 25.078L30.8448 12.2799C30.8448 12.1423 30.8448 12.0046 30.8448 11.867C30.8448 11.0413 30.2907 10.4909 29.4594 10.4909H23.0862ZM11.7254 10.4909L15.8818 4.43583L20.0382 10.4909H11.7254ZM15.8818 21.5001C14.3578 21.5001 13.1109 20.2615 13.1109 18.7478C13.1109 17.234 14.3578 15.9955 15.8818 15.9955C17.4058 15.9955 18.6528 17.234 18.6528 18.7478C18.6528 20.2615 17.4058 21.5001 15.8818 21.5001Z" fill="#212121"/>
</svg>
