<svg width="204" height="40" viewBox="0 0 204 40" fill="none" xmlns="http://www.w3.org/2000/svg">
<g clip-path="url(#clip0)">
<path d="M10.2859 14.7235L4.98363 19.9901L10.2859 25.2566L15.5881 19.9901L10.2859 14.7235Z" fill="#D7B399"/>
<path d="M21.0136 4.08541L15.7114 9.35199L21.0136 14.6186L26.3158 9.35199L21.0136 4.08541Z" fill="#D7B399"/>
<path d="M21.0106 25.3938L15.7083 30.6604L21.0106 35.927L26.3128 30.6604L21.0106 25.3938Z" fill="#D7B399"/>
<path d="M31.7384 14.7266L26.4361 19.9932L31.7384 25.2597L37.0406 19.9932L31.7384 14.7266Z" fill="#D7B399"/>
<path d="M29.6878 12.6866L24.3856 17.9532L26.4385 19.9923L31.7407 14.7258L29.6878 12.6866Z" fill="#D7B399"/>
<path d="M18.9601 23.3532L13.6579 28.6198L15.7108 30.659L21.0131 25.3924L18.9601 23.3532Z" fill="#D7B399"/>
<path d="M26.3136 9.35299L21.0113 14.6196L23.0643 16.6587L28.3665 11.3921L26.3136 9.35299Z" fill="#D7B399"/>
<path d="M15.6006 20.0053L10.2983 25.2719L12.3513 27.311L17.6535 22.0444L15.6006 20.0053Z" fill="#D7B399"/>
<path d="M12.3397 12.6864L10.2867 14.7256L15.5889 19.9922L17.6419 17.953L12.3397 12.6864Z" fill="#D7B399"/>
<path d="M15.7106 9.34953L13.6576 11.3887L18.9599 16.6552L21.0128 14.6161L15.7106 9.34953Z" fill="#D7B399"/>
<path d="M26.4353 19.9905L24.3823 22.0296L29.6846 27.2962L31.7375 25.257L26.4353 19.9905Z" fill="#D7B399"/>
<path d="M23.0791 23.342L21.0262 25.3812L26.3284 30.6477L28.3813 28.6086L23.0791 23.342Z" fill="#D7B399"/>
<path d="M28.3716 32.6971L26.3247 30.6639L21.0193 35.9336L15.7139 30.6639L13.6669 32.6971L21.0193 40L28.3716 32.6971Z" fill="#D7B399"/>
<path d="M10.2832 14.7303L8.2362 12.6971L0.88385 20L8.2362 27.3029L10.2832 25.2697L4.97777 20L10.2832 14.7303Z" fill="#D7B399"/>
<path d="M33.8023 12.6971L31.7554 14.7303L37.0608 20L31.7554 25.2697L33.8023 27.3029L41.1547 20L33.8023 12.6971Z" fill="#D7B399"/>
<path d="M26.3247 9.3361L28.3716 7.3029L21.0193 0L13.6669 7.3029L15.7139 9.3361L21.0193 4.06639L26.3247 9.3361Z" fill="#D7B399"/>
</g>
<path d="M66.7621 15.368H61.3861V12.2H76.0261V15.368H70.6501V29H66.7621V15.368ZM94.726 12.2V29H90.838V22.112H83.206V29H79.318V12.2H83.206V18.824H90.838V12.2H94.726ZM112.909 25.88V29H99.9009V12.2H112.597V15.32H103.765V18.968H111.565V21.992H103.765V25.88H112.909ZM125.199 12.2H129.087V25.832H137.511V29H125.199V12.2ZM148.738 29.288C146.994 29.288 145.418 28.912 144.01 28.16C142.618 27.408 141.522 26.376 140.722 25.064C139.938 23.736 139.546 22.248 139.546 20.6C139.546 18.952 139.938 17.472 140.722 16.16C141.522 14.832 142.618 13.792 144.01 13.04C145.418 12.288 146.994 11.912 148.738 11.912C150.482 11.912 152.05 12.288 153.442 13.04C154.834 13.792 155.93 14.832 156.73 16.16C157.53 17.472 157.93 18.952 157.93 20.6C157.93 22.248 157.53 23.736 156.73 25.064C155.93 26.376 154.834 27.408 153.442 28.16C152.05 28.912 150.482 29.288 148.738 29.288ZM148.738 25.976C149.73 25.976 150.626 25.752 151.426 25.304C152.226 24.84 152.85 24.2 153.298 23.384C153.762 22.568 153.994 21.64 153.994 20.6C153.994 19.56 153.762 18.632 153.298 17.816C152.85 17 152.226 16.368 151.426 15.92C150.626 15.456 149.73 15.224 148.738 15.224C147.746 15.224 146.85 15.456 146.05 15.92C145.25 16.368 144.618 17 144.154 17.816C143.706 18.632 143.482 19.56 143.482 20.6C143.482 21.64 143.706 22.568 144.154 23.384C144.618 24.2 145.25 24.84 146.05 25.304C146.85 25.752 147.746 25.976 148.738 25.976ZM170.188 29.288C168.444 29.288 166.868 28.912 165.46 28.16C164.068 27.408 162.972 26.376 162.172 25.064C161.388 23.736 160.996 22.248 160.996 20.6C160.996 18.952 161.388 17.472 162.172 16.16C162.972 14.832 164.068 13.792 165.46 13.04C166.868 12.288 168.444 11.912 170.188 11.912C171.932 11.912 173.5 12.288 174.892 13.04C176.284 13.792 177.38 14.832 178.18 16.16C178.98 17.472 179.38 18.952 179.38 20.6C179.38 22.248 178.98 23.736 178.18 25.064C177.38 26.376 176.284 27.408 174.892 28.16C173.5 28.912 171.932 29.288 170.188 29.288ZM170.188 25.976C171.18 25.976 172.076 25.752 172.876 25.304C173.676 24.84 174.3 24.2 174.748 23.384C175.212 22.568 175.444 21.64 175.444 20.6C175.444 19.56 175.212 18.632 174.748 17.816C174.3 17 173.676 16.368 172.876 15.92C172.076 15.456 171.18 15.224 170.188 15.224C169.196 15.224 168.3 15.456 167.5 15.92C166.7 16.368 166.068 17 165.604 17.816C165.156 18.632 164.932 19.56 164.932 20.6C164.932 21.64 165.156 22.568 165.604 23.384C166.068 24.2 166.7 24.84 167.5 25.304C168.3 25.752 169.196 25.976 170.188 25.976ZM190.774 12.2C192.262 12.2 193.55 12.448 194.638 12.944C195.742 13.44 196.59 14.144 197.182 15.056C197.774 15.968 198.07 17.048 198.07 18.296C198.07 19.528 197.774 20.608 197.182 21.536C196.59 22.448 195.742 23.152 194.638 23.648C193.55 24.128 192.262 24.368 190.774 24.368H187.39V29H183.502V12.2H190.774ZM190.558 21.2C191.726 21.2 192.614 20.952 193.222 20.456C193.83 19.944 194.134 19.224 194.134 18.296C194.134 17.352 193.83 16.632 193.222 16.136C192.614 15.624 191.726 15.368 190.558 15.368H187.39V21.2H190.558Z" fill="#212121"/>
<defs>
<clipPath id="clip0">
<rect width="40.2708" height="40" fill="white" transform="translate(0.88385)"/>
</clipPath>
</defs>
</svg>
